<svg version="1.1" id="Layer_1" xmlns="http://www.w3.org/2000/svg" xmlns:xlink="http://www.w3.org/1999/xlink" x="0px" y="0px"
	 width="100%" viewBox="0 0 336 336" enable-background="new 0 0 336 336" xml:space="preserve">
<path fill="#000000" opacity="1.000000" stroke="none" 
	d="
M313.000000,337.000000 
	C208.666672,337.000000 104.833336,337.000000 1.000000,337.000000 
	C1.000000,225.000000 1.000000,113.000000 1.000000,1.000000 
	C113.000000,1.000000 225.000000,1.000000 337.000000,1.000000 
	C337.000000,113.000000 337.000000,225.000000 337.000000,337.000000 
	C329.166656,337.000000 321.333344,337.000000 313.000000,337.000000 
M294.970947,178.232513 
	C296.405029,175.230881 297.527313,172.025604 299.330353,169.264908 
	C305.281464,160.152817 311.478638,151.201416 317.581360,142.188324 
	C313.618744,143.098618 310.199921,145.110580 306.601685,146.721985 
	C295.036896,151.901154 283.257507,156.624603 271.850494,162.124512 
	C263.697083,166.055664 255.970886,170.886322 248.128891,175.444366 
	C244.049438,177.815506 240.068222,180.372482 236.177902,183.042603 
	C234.902588,183.917908 233.368515,185.293045 233.129440,186.647308 
	C232.168991,192.088104 232.148300,197.721313 230.905212,203.080429 
	C227.860657,216.205948 226.095779,230.082901 210.046844,235.212952 
	C203.158417,237.414856 194.243210,235.393219 189.712631,229.443893 
	C183.890930,221.799133 182.937119,212.908600 182.040039,203.924561 
	C181.779419,201.314392 182.000000,198.656189 182.000000,196.020004 
	C181.566605,195.949860 181.133224,195.879730 180.699829,195.809586 
	C178.885635,202.105103 175.812134,207.858200 168.727112,207.748657 
	C161.428436,207.635803 159.065948,200.971619 156.813705,194.946747 
	C155.826492,202.768494 155.413208,210.115799 153.892868,217.226395 
	C150.888199,231.279068 142.905151,236.541534 131.993393,236.845825 
	C129.670868,236.910599 127.134613,235.274719 124.979889,233.958847 
	C121.943733,232.104675 118.483871,230.341537 116.413116,227.620300 
	C109.704933,218.804855 106.973732,208.250641 106.183434,197.480804 
	C105.558136,188.959488 103.799362,182.831375 94.961945,178.704102 
	C81.355728,172.349701 68.724457,163.941895 55.418858,156.897675 
	C46.482128,152.166397 37.126694,148.215088 27.886896,144.074829 
	C25.566183,143.034943 22.969761,142.610367 19.890903,141.728546 
	C42.539009,173.163162 62.283390,204.861069 62.323948,244.332657 
	C107.109505,258.157288 145.807983,279.858124 168.892929,324.642670 
	C191.674103,280.429169 230.438461,258.043091 275.164551,244.602295 
	C276.118835,236.876877 276.680176,229.194687 278.078888,221.668106 
	C280.911621,206.425079 286.401276,192.122620 294.970947,178.232513 
z"/>
<path fill="#FFFFFF" opacity="1.000000" stroke="none" 
	d="
M294.789856,178.573395 
	C286.401276,192.122620 280.911621,206.425079 278.078888,221.668106 
	C276.680176,229.194687 276.118835,236.876877 275.164551,244.602295 
	C230.438461,258.043091 191.674103,280.429169 168.892929,324.642670 
	C145.807983,279.858124 107.109505,258.157288 62.323948,244.332657 
	C62.283390,204.861069 42.539009,173.163162 19.890903,141.728546 
	C22.969761,142.610367 25.566183,143.034943 27.886896,144.074829 
	C37.126694,148.215088 46.482128,152.166397 55.418858,156.897675 
	C68.724457,163.941895 81.355728,172.349701 94.961945,178.704102 
	C103.799362,182.831375 105.558136,188.959488 106.183434,197.480804 
	C106.973732,208.250641 109.704933,218.804855 116.413116,227.620300 
	C118.483871,230.341537 121.943733,232.104675 124.979889,233.958847 
	C127.134613,235.274719 129.670868,236.910599 131.993393,236.845825 
	C142.905151,236.541534 150.888199,231.279068 153.892868,217.226395 
	C155.413208,210.115799 155.826492,202.768494 156.813705,194.946747 
	C159.065948,200.971619 161.428436,207.635803 168.727112,207.748657 
	C175.812134,207.858200 178.885635,202.105103 180.699829,195.809586 
	C181.133224,195.879730 181.566605,195.949860 182.000000,196.020004 
	C182.000000,198.656189 181.779419,201.314392 182.040039,203.924561 
	C182.937119,212.908600 183.890930,221.799133 189.712631,229.443893 
	C194.243210,235.393219 203.158417,237.414856 210.046844,235.212952 
	C226.095779,230.082901 227.860657,216.205948 230.905212,203.080429 
	C232.148300,197.721313 232.168991,192.088104 233.129440,186.647308 
	C233.368515,185.293045 234.902588,183.917908 236.177902,183.042603 
	C240.068222,180.372482 244.049438,177.815506 248.128891,175.444366 
	C255.970886,170.886322 263.697083,166.055664 271.850494,162.124512 
	C283.257507,156.624603 295.036896,151.901154 306.601685,146.721985 
	C310.199921,145.110580 313.618744,143.098618 317.581360,142.188324 
	C311.478638,151.201416 305.281464,160.152817 299.330353,169.264908 
	C297.527313,172.025604 296.405029,175.230881 294.789856,178.573395 
z"/>
</svg>